<?xml version="1.0" encoding="UTF-8" standalone="no" ?>
<!DOCTYPE svg PUBLIC "-//W3C//DTD SVG 1.1//EN" "http://www.w3.org/Graphics/SVG/1.1/DTD/svg11.dtd">
<svg xmlns="http://www.w3.org/2000/svg" xmlns:xlink="http://www.w3.org/1999/xlink" version="1.1" width="16" height="16" viewBox="0 0 16 16" xml:space="preserve">
<desc>Created with Fabric.js 4.6.0</desc>
<defs>
</defs>
<g transform="matrix(1 0 0 1 8 7.8)" id="9z_6GPf0WawgqKYCmAzfG"  >
<path style="stroke: none; stroke-width: 1; stroke-dasharray: none; stroke-linecap: butt; stroke-dashoffset: 0; stroke-linejoin: miter; stroke-miterlimit: 4; fill: rgb(255,255,255); fill-rule: nonzero; opacity: 1;" vector-effect="non-scaling-stroke"  transform=" translate(0, 0)" d="M 0 -7.80264 C -4.42 -7.80264 -8 -4.22264 -8 0.19735999999999976 C -8 3.73736 -5.71 6.72736 -2.5300000000000002 7.78736 C -2.1300000000000003 7.85736 -1.9800000000000002 7.61736 -1.9800000000000002 7.40736 C -1.9800000000000002 7.217359999999999 -1.9900000000000002 6.587359999999999 -1.9900000000000002 5.9173599999999995 C -4 6.28736 -4.52 5.427359999999999 -4.68 4.977359999999999 C -4.77 4.747359999999999 -5.16 4.03736 -5.5 3.8473599999999992 C -5.78 3.6973599999999993 -6.18 3.327359999999999 -5.51 3.317359999999999 C -4.88 3.307359999999999 -4.43 3.897359999999999 -4.279999999999999 4.137359999999999 C -3.5599999999999996 5.347359999999999 -2.4099999999999993 5.007359999999999 -1.9499999999999993 4.797359999999999 C -1.8799999999999992 4.27736 -1.6699999999999993 3.9273599999999993 -1.4399999999999993 3.727359999999999 C -3.2199999999999993 3.527359999999999 -5.079999999999999 2.837359999999999 -5.079999999999999 -0.22264000000000106 C -5.079999999999999 -1.0926400000000012 -4.77 -1.8126400000000011 -4.259999999999999 -2.372640000000001 C -4.339999999999999 -2.572640000000001 -4.619999999999999 -3.392640000000001 -4.179999999999999 -4.4926400000000015 C -4.179999999999999 -4.4926400000000015 -3.509999999999999 -4.7026400000000015 -1.9799999999999986 -3.6726400000000017 C -1.3399999999999985 -3.852640000000002 -0.6599999999999986 -3.9426400000000017 0.02000000000000135 -3.9426400000000017 C 0.7000000000000014 -3.9426400000000017 1.3800000000000014 -3.852640000000002 2.0200000000000014 -3.6726400000000017 C 3.5500000000000016 -4.712640000000002 4.2200000000000015 -4.4926400000000015 4.2200000000000015 -4.4926400000000015 C 4.660000000000002 -3.3926400000000014 4.380000000000002 -2.5726400000000016 4.300000000000002 -2.3726400000000014 C 4.810000000000001 -1.8126400000000014 5.120000000000002 -1.1026400000000014 5.120000000000002 -0.2226400000000015 C 5.120000000000002 2.8473599999999983 3.2500000000000018 3.5273599999999985 1.470000000000002 3.7273599999999987 C 1.760000000000002 3.9773599999999987 2.010000000000002 4.457359999999999 2.010000000000002 5.207359999999999 C 2.010000000000002 6.277359999999999 2.000000000000002 7.137359999999998 2.000000000000002 7.407359999999999 C 2.000000000000002 7.617359999999999 2.150000000000002 7.867359999999999 2.5500000000000025 7.787359999999999 C 5.8066400000000025 6.688279999999999 7.999430000000003 3.634459999999999 8.000000000000004 0.19735999999999887 C 8.000000000000004 -4.222640000000001 4.4200000000000035 -7.802640000000001 3.552713678800501e-15 -7.802640000000001 z" stroke-linecap="round" />
</g>
</svg>